/vscmnt/brussel_pixiu_data/_data_brussel/112/vsc11236/PredSimResults/SUBJ09mtu3D/weighted-LRposFixed/trackIG/worker_02.mot
version=1
nRows=11
nColumns=50
inDegrees=yes
endheader
                time	         pelvis_tilt	         pelvis_list	     pelvis_rotation	           pelvis_tx	           pelvis_ty	           pelvis_tz	       hip_flexion_r	     hip_adduction_r	      hip_rotation_r	        knee_angle_r	       ankle_angle_r	         mtp_angle_r	       hip_flexion_l	     hip_adduction_l	      hip_rotation_l	        knee_angle_l	       ankle_angle_l	         mtp_angle_l	    lumbar_extension	      lumbar_bending	     lumbar_rotation	 ercspn_r/activation	 intobl_r/activation	 extobl_r/activation	    abd_r/activation	    add_r/activation	hamstrings_r/activation	bifemsh_r/activation	glut_max_r/activation	iliopsoas_r/activation	rect_fem_r/activation	  vasti_r/activation	gastroc_r/activation	 soleus_r/activation	tib_ant_r/activation	 ercspn_l/activation	 intobl_l/activation	 extobl_l/activation	    abd_l/activation	    add_l/activation	hamstrings_l/activation	bifemsh_l/activation	glut_max_l/activation	iliopsoas_l/activation	rect_fem_l/activation	  vasti_l/activation	gastroc_l/activation	 soleus_l/activation	tib_ant_l/activation	
          1.28346395	         -7.47058349	         -4.47618447	          7.69262901	          1.50165283	          0.98049262	         -0.01273407	         31.04026032	          1.44234915	         -5.27876498	         -2.86366637	          6.21858100	          0.22856397	        -11.23256924	         -4.68953620	          5.33263097	         -6.92607273	         10.50025354	         28.07176777	         -0.54855179	          3.03552138	         -3.52130384	          0.08050705	          0.11179882	          0.02917415	          0.00999999	          0.11108138	          0.12163284	          0.19020085	          0.05132650	          0.11547401	          0.00999999	          0.00999999	          0.02544580	          0.01473578	          0.26504569	          0.07719259	          0.00999999	          0.00999999	          0.05011149	          0.02682567	          0.01741325	          0.12021847	          0.03950133	          0.48676114	          0.00999999	          0.00999999	          0.31902403	          0.27266228	          0.01473578	
          1.29629859	         -7.55483532	         -4.42058499	          7.66174888	          1.52000541	          0.97853235	         -0.01244513	         31.08837081	          1.54229949	         -5.06646702	         -4.66460450	          5.81916437	          0.19935674	        -11.37097357	         -4.64638717	          4.93322452	         -8.49695625	          9.75590222	         30.11756617	         -0.24285982	          3.36860372	         -3.63240583	          0.06632040	          0.10141408	          0.02403319	          0.04413856	          0.09150705	          0.10804745	          0.15668439	          0.10157422	          0.09512562	          0.00999999	          0.00999999	          0.02096184	          0.01213909	          0.30730183	          0.07588832	          0.00999999	          0.00999999	          0.04128104	          0.02999311	          0.01901210	          0.09903403	          0.03254056	          0.46822136	          0.00999999	          0.01968451	          0.29096841	          0.25278874	          0.01213909	
          1.30913323	         -7.62037123	         -4.36041667	          7.58124915	          1.53860428	          0.97700926	         -0.01206602	         30.94048853	          1.64700282	         -4.87538457	         -6.13218140	          5.23106194	          0.18820407	        -11.32781250	         -4.58554447	          4.51035055	        -10.43091470	          8.80307265	         32.22073836	          0.06683513	          3.70470616	         -3.71153542	          0.06952218	          0.08354328	          0.01979815	          0.10522653	          0.10061643	          0.09059833	          0.12907407	          0.14295468	          0.07836295	          0.00999999	          0.00999999	          0.01726803	          0.00999999	          0.34741736	          0.09746536	          0.00999999	          0.00999999	          0.03400665	          0.02689075	          0.02196690	          0.08158264	          0.02680639	          0.44804388	          0.01000007	          0.01715568	          0.23969508	          0.21196998	          0.00999999	
          1.32196787	         -7.66730880	         -4.29192210	          7.45536398	          1.55714256	          0.97612904	         -0.01159734	         30.69734869	          1.76560030	         -4.70650362	         -7.45971105	          4.66945581	          0.15701644	        -11.01051536	         -4.49966354	          4.07292143	        -12.85402962	          7.63769674	         34.26622951	          0.34921616	          4.04001972	         -3.75772509	          0.06992654	          0.06882161	          0.01630940	          0.14820949	          0.12726780	          0.07463344	          0.10632914	          0.18160438	          0.06455414	          0.00999999	          0.00999999	          0.01422512	          0.00999999	          0.37382884	          0.13202107	          0.00999999	          0.00999999	          0.02801413	          0.04251695	          0.01809598	          0.06720646	          0.02208267	          0.41796163	          0.00999999	          0.01413257	          0.19745694	          0.17461745	          0.00999999	
          1.33480251	         -7.69376602	         -4.21689917	          7.28649352	          1.57542431	          0.97597086	         -0.01105246	         30.41741003	          1.89589984	         -4.54586142	         -8.78063040	          4.34281789	          0.13411516	        -10.36033066	         -4.39068756	          3.62163417	        -15.84417356	          6.27403621	         36.05259553	          0.58807735	          4.37641030	         -3.76883326	          0.07420765	          0.05669413	          0.01343542	          0.17105751	          0.13188764	          0.06281879	          0.08759223	          0.19988373	          0.05317865	          0.00999999	          0.04343562	          0.01171843	          0.00999999	          0.38368599	          0.15503875	          0.00999999	          0.00999999	          0.02307759	          0.06497566	          0.01968664	          0.05536360	          0.01819135	          0.36625983	          0.00999999	          0.01164218	          0.16266184	          0.14384703	          0.00999999	
          1.34763715	         -7.69967526	         -4.12621599	          7.07639432	          1.59335078	          0.97655521	         -0.01046320	         30.07229479	          2.02650480	         -4.38452364	        -10.01136615	          4.15457477	          0.11514405	         -9.36480832	         -4.25449483	          3.15064102	        -19.40059991	          4.77382955	         37.19232197	          0.77788755	          4.70443060	         -3.74299194	          0.06113107	          0.04670371	          0.01106788	          0.16964847	          0.10864691	          0.05414400	          0.07215706	          0.19095643	          0.04380772	          0.00999999	          0.11720792	          0.00999999	          0.00999999	          0.38519508	          0.16426202	          0.00999999	          0.00999999	          0.01901094	          0.07956947	          0.01921117	          0.04560764	          0.01498574	          0.30171894	          0.00999999	          0.00999999	          0.13399819	          0.11849886	          0.00999999	
          1.36047179	         -7.68713982	         -4.00847212	          6.82639454	          1.61087611	          0.97790107	         -0.00986297	         29.59472287	          2.14819483	         -4.20209191	        -11.02042779	          4.08799653	          0.09929195	         -8.04439183	         -4.08906349	          2.65800337	        -23.45516880	          3.15750084	         37.35160401	          0.91689134	          5.01159584	         -3.67988392	          0.05035879	          0.03847376	          0.00999999	          0.16162338	          0.08950157	          0.04997198	          0.05944182	          0.17327677	          0.03608809	          0.00999999	          0.16934120	          0.00999999	          0.00999999	          0.37782155	          0.16822294	          0.00999999	          0.00999999	          0.01566091	          0.09029828	          0.01582585	          0.05816864	          0.01234501	          0.24855119	          0.00999999	          0.00999999	          0.11038555	          0.09761745	          0.00999999	
          1.37330643	         -7.65890412	         -3.85459012	          6.53638561	          1.62800910	          0.97995533	         -0.00927945	         28.93497144	          2.25285641	         -3.98002512	        -11.71713028	          4.13123701	          0.08971416	         -6.45052187	         -3.89346128	          2.16182267	        -27.84960546	          1.28653887	         36.55989334	          1.00892905	          5.28779622	         -3.57856171	          0.04148475	          0.03169406	          0.00999999	          0.15423161	          0.07372995	          0.04723720	          0.04896721	          0.15279454	          0.02972879	          0.00999999	          0.19883599	          0.00999999	          0.00999999	          0.36592432	          0.16539133	          0.00999999	          0.00999999	          0.01290120	          0.10289445	          0.01303708	          0.07281202	          0.01016962	          0.20475246	          0.00999999	          0.00999999	          0.09093383	          0.08041568	          0.02426972	
          1.38614107	         -7.61746270	         -3.65606128	          6.20576637	          1.64474762	          0.98257879	         -0.00873675	         28.08909209	          2.32905025	         -3.69851580	        -12.08860827	          4.26146239	          0.08625311	         -4.64266171	         -3.65955549	          1.68669324	        -32.44379485	         -0.71644019	         34.55998392	          1.05515428	          5.52391606	         -3.43811308	          0.03417447	          0.02610906	          0.00999999	          0.14819176	          0.06073754	          0.04422595	          0.04033840	          0.12586967	          0.02449009	          0.00999999	          0.19874863	          0.00999999	          0.00999999	          0.34887640	          0.16753694	          0.00999999	          0.03972829	          0.01062780	          0.10451884	          0.01073974	          0.05998137	          0.00999999	          0.16867177	          0.00999999	          0.00999999	          0.07490982	          0.06624514	          0.08277603	
          1.39897571	         -7.56436897	         -3.41344634	          5.83900363	          1.66105153	          0.98555748	         -0.00823887	         27.11329847	          2.37044589	         -3.33865304	        -12.22660288	          4.46950228	          0.09031308	         -2.69621301	         -3.38000147	          1.26173240	        -37.11472417	         -2.43840178	         31.00495798	          1.05153811	          5.71590331	         -3.26611041	          0.02815238	          0.02150822	          0.00999999	          0.14314331	          0.05003460	          0.03886625	          0.03323012	          0.10368941	          0.02017454	          0.00999999	          0.18640879	          0.00999999	          0.00999999	          0.32774903	          0.18720732	          0.03104433	          0.08272549	          0.00999999	          0.08610093	          0.00999999	          0.04941169	          0.00999999	          0.13894908	          0.00999999	          0.00999999	          0.06170950	          0.05457167	          0.18513067	
          1.41181035	         -7.50030438	         -3.13815636	          5.44296425	          1.67690585	          0.98867747	         -0.00776361	         26.07397982	          2.38078595	         -2.90198849	        -12.23682693	          4.72457062	          0.10169646	         -0.71721890	         -3.04818537	          0.90114636	        -41.67080707	         -3.19107425	         26.45753024	          0.99800906	          5.86460399	         -3.07269844	          0.02319147	          0.01771812	          0.00999999	          0.13546560	          0.04121770	          0.03434873	          0.02737444	          0.09165636	          0.01661946	          0.00999999	          0.17163535	          0.00999999	          0.00999999	          0.30576962	          0.20045129	          0.03566113	          0.09740376	          0.00999999	          0.07092856	          0.00999999	          0.06323555	          0.00999999	          0.11446401	          0.00999999	          0.00999999	          0.05083529	          0.04495526	          0.20537626	
